# xmcd CD database file generated by Grip 2.93
# 
# Track frame offsets:
#       182
#       22515
#       40310
#       51435
#       75187
#       97077
#       119070
#       142110
#       164707
#       189850
#       215885
#       231490
#       250380
#       271015
# 
# Disc length: 3928 seconds
# 
# Revision: 3
# Processed by: cddbd v1.4b41PL1 Copyright (c) Steve Scherf et al.
# Submitted via: Grip 2.93
# 
DISCID=ca0f560e
DTITLE=Professor Longhair - Rum and Coke
DYEAR=1900
DGENRE=
TTITLE0=Everyday I Have The Blues
TTITLE1=Jambalaya (On The Bayou)
TTITLE2=Rum and Coca-Cola (Version Two)
TTITLE3=Medley: She Walks Right In/Shake, Rattle and Roll/Roberta
TTITLE4=Mardi Gras In New Orleans
TTITLE5=Whole Lotta Lovin'
TTITLE6=Gone So Long
TTITLE7=Doin' It (Part Two)
TTITLE8=How Long Has That Train Been Gone (Version Two)
TTITLE9=Hey Now Baby
TTITLE10=501 Boogie
TTITLE11=Junco Partner
TTITLE12=She Ain't Got No Hair
TTITLE13=Gone So Long (Second Conversation)
EXTD=
EXTT0=
EXTT1=
EXTT2=
EXTT3=
EXTT4=
EXTT5=
EXTT6=
EXTT7=
EXTT8=
EXTT9=
EXTT10=
EXTT11=
EXTT12=
EXTT13=
PLAYORDER=
